<svg xmlns="http://www.w3.org/2000/svg" viewBox="0 0 200 200">
  <!-- Outer yellow circle -->
  <circle cx="100" cy="100" r="100" fill="#FBBF24"/>
  <!-- White ring -->
  <circle cx="100" cy="100" r="90" fill="white"/>
  <!-- Inner yellow fill -->
  <circle cx="100" cy="100" r="82" fill="#FBBF24"/>

  <!-- Leaves (dark brown) -->
  <path d="M92 148 Q62 132 38 154 Q54 172 78 162 Q88 157 92 148Z" fill="#5C4318"/>
  <path d="M108 148 Q138 132 162 154 Q146 172 122 162 Q112 157 108 148Z" fill="#5C4318"/>
  <!-- Leaf stems -->
  <path d="M100 170 Q95 160 92 148" stroke="#5C4318" stroke-width="5" fill="none" stroke-linecap="round"/>
  <path d="M100 170 Q105 160 108 148" stroke="#5C4318" stroke-width="5" fill="none" stroke-linecap="round"/>

  <!-- Center top petal -->
  <path d="M100 28 C96 48 92 70 95 92 C97 97 100 99 103 97 C108 75 104 48 100 28Z" fill="white"/>
  <!-- Left wing petal -->
  <path d="M95 91 C86 77 60 60 36 66 C40 84 72 92 98 98Z" fill="white"/>
  <!-- Right wing petal -->
  <path d="M105 91 C114 77 140 60 164 66 C160 84 128 92 102 98Z" fill="white"/>

  <!-- Stamen stems -->
  <line x1="100" y1="96" x2="90"  y2="64" stroke="#5C4318" stroke-width="3" stroke-linecap="round"/>
  <line x1="100" y1="96" x2="100" y2="58" stroke="#5C4318" stroke-width="3" stroke-linecap="round"/>
  <line x1="100" y1="96" x2="110" y2="64" stroke="#5C4318" stroke-width="3" stroke-linecap="round"/>
  <!-- Stamen dots -->
  <circle cx="89"  cy="61" r="5"   fill="#FBBF24"/>
  <circle cx="100" cy="54" r="5.5" fill="#FBBF24"/>
  <circle cx="111" cy="61" r="5"   fill="#FBBF24"/>
</svg>
